<?xml version="1.0" encoding="UTF-8"?>
<svg xmlns="http://www.w3.org/2000/svg" xmlns:xlink="http://www.w3.org/1999/xlink" width="65px" height="65px" viewBox="0 0 65 65" version="1.1">
<g id="surface1">
<path style=" stroke:none;fill-rule:nonzero;fill:rgb(0.392157%,50.588235%,96.078431%);fill-opacity:1;" d="M 0.757812 17.984375 C 0.757812 17.875 0.867188 17.765625 0.867188 17.765625 C 1.300781 16.574219 2.167969 15.816406 3.359375 15.707031 C 4.550781 15.601562 5.632812 16.140625 6.285156 17.117188 C 7.476562 19.066406 8.234375 21.234375 8.773438 23.507812 C 9.101562 24.917969 9.316406 26.433594 9.425781 27.949219 C 9.425781 28.382812 9.640625 28.492188 10.074219 28.492188 C 11.589844 28.492188 13 28.492188 14.515625 28.492188 C 15.707031 28.492188 16.683594 29.035156 17.226562 30.117188 C 18.632812 33.042969 19.5 35.964844 19.5 39.214844 C 19.5 39.324219 19.5 39.433594 19.5 39.542969 C 19.390625 40.300781 19.390625 40.300781 20.257812 40.300781 C 21.773438 40.300781 23.292969 40.300781 24.808594 40.300781 C 25.457031 40.300781 25.457031 40.082031 25.457031 39.648438 C 25.351562 37.699219 24.589844 36.074219 23.074219 34.882812 C 21.992188 34.015625 21.558594 32.714844 21.558594 31.308594 C 21.558594 30.332031 21.558594 29.359375 21.558594 28.492188 C 21.558594 26.757812 22.859375 25.566406 24.589844 25.566406 C 25.351562 25.566406 26.214844 25.566406 26.976562 25.566406 C 27.300781 25.566406 27.410156 25.457031 27.515625 25.132812 C 27.625 23.398438 28.382812 21.882812 29.464844 20.582031 C 30.660156 19.175781 31.417969 17.550781 31.308594 15.707031 C 31.308594 15.273438 31.523438 14.949219 31.851562 14.734375 C 32.285156 14.515625 32.609375 14.625 32.933594 14.949219 C 34.992188 16.464844 36.292969 18.632812 36.941406 21.125 C 37.375 22.425781 37.484375 23.832031 37.375 25.132812 C 37.375 25.457031 37.484375 25.566406 37.808594 25.566406 C 38.675781 25.566406 39.433594 25.566406 40.300781 25.566406 C 41.925781 25.566406 43.226562 26.867188 43.226562 28.492188 C 43.226562 29.683594 43.226562 30.984375 43.226562 32.175781 C 43.117188 33.257812 42.574219 34.234375 41.707031 34.992188 C 40.082031 36.292969 39.433594 38.023438 39.324219 39.976562 C 39.324219 40.410156 39.324219 40.515625 39.757812 40.515625 C 41.492188 40.515625 43.117188 40.515625 44.851562 40.515625 C 45.175781 40.515625 45.390625 40.515625 45.285156 40.082031 C 45.066406 38.457031 45.390625 36.941406 45.714844 35.316406 C 46.042969 33.691406 46.691406 32.066406 47.339844 30.550781 C 47.992188 29.25 48.964844 28.492188 50.484375 28.601562 C 51.785156 28.601562 53.191406 28.601562 54.492188 28.601562 C 55.25 28.601562 55.359375 28.273438 55.359375 27.734375 C 55.574219 24.917969 56.226562 22.207031 57.308594 19.609375 C 57.632812 18.742188 58.066406 17.765625 58.714844 17.007812 C 59.582031 15.707031 61.425781 15.382812 62.832031 16.140625 C 64.132812 17.007812 64.566406 18.742188 63.808594 20.148438 C 62.398438 22.535156 61.859375 25.023438 61.535156 27.734375 C 61.101562 31.417969 61.425781 35.101562 62.183594 38.785156 C 62.292969 39.109375 62.292969 39.542969 62.183594 39.867188 C 61.964844 40.515625 62.292969 40.515625 62.726562 40.515625 C 63.917969 40.515625 64.132812 40.839844 64.132812 41.925781 C 64.132812 44.308594 64.132812 46.691406 64.132812 49.074219 C 64.132812 50.050781 63.808594 50.375 62.832031 50.375 C 42.574219 50.375 22.316406 50.375 2.058594 50.375 C 1.515625 50.375 1.082031 50.160156 0.757812 49.726562 C 0.757812 46.800781 0.757812 43.984375 0.757812 41.058594 C 1.191406 40.410156 1.734375 40.410156 2.492188 40.410156 C 2.601562 40.410156 3.035156 40.515625 2.925781 40.191406 C 2.601562 39 3.140625 38.023438 3.25 36.941406 C 3.792969 33.476562 3.898438 30.007812 3.359375 26.542969 C 2.925781 23.941406 2.058594 21.558594 0.757812 19.285156 C 0.757812 18.851562 0.757812 18.417969 0.757812 17.984375 Z M 32.5 48.316406 C 42.035156 48.316406 51.457031 48.316406 60.992188 48.316406 C 62.183594 48.316406 62.183594 48.316406 62.292969 47.015625 C 62.292969 46.367188 62.183594 46.257812 61.535156 46.257812 C 42.359375 46.257812 23.183594 46.257812 4.117188 46.257812 C 2.816406 46.257812 2.925781 46.257812 2.816406 47.558594 C 2.816406 48.101562 2.925781 48.316406 3.574219 48.316406 C 13.109375 48.316406 22.75 48.316406 32.5 48.316406 Z M 32.5 31.523438 C 29.683594 31.523438 26.867188 31.523438 24.050781 31.523438 C 23.617188 31.523438 23.507812 31.632812 23.617188 32.066406 C 23.726562 32.824219 24.160156 33.367188 24.699219 33.800781 C 25.785156 34.773438 26.542969 35.859375 26.976562 37.160156 C 27.191406 38.023438 27.410156 38.890625 27.410156 39.757812 C 27.410156 40.300781 27.625 40.515625 28.167969 40.515625 C 30.984375 40.515625 33.910156 40.515625 36.726562 40.515625 C 37.265625 40.515625 37.375 40.410156 37.375 39.867188 C 37.484375 37.265625 38.351562 35.101562 40.410156 33.476562 C 40.839844 33.148438 41.058594 32.714844 41.167969 32.175781 C 41.273438 31.742188 41.167969 31.523438 40.625 31.523438 C 38.023438 31.523438 35.316406 31.523438 32.5 31.523438 Z M 17.660156 38.890625 C 17.550781 36.183594 16.792969 33.582031 15.601562 31.199219 C 15.382812 30.765625 15.058594 30.550781 14.515625 30.550781 C 12.675781 30.550781 10.832031 30.550781 9.101562 30.550781 C 8.015625 30.550781 7.691406 30.226562 7.691406 29.25 C 7.691406 28.058594 7.476562 26.867188 7.257812 25.675781 C 6.824219 23.074219 6.066406 20.582031 4.765625 18.308594 C 4.332031 17.660156 3.683594 17.441406 3.25 17.765625 C 2.707031 18.089844 2.707031 18.632812 3.035156 19.285156 C 4.550781 21.773438 5.199219 24.484375 5.523438 27.410156 C 5.957031 31.308594 5.632812 35.207031 4.875 39 C 4.765625 39.757812 4.984375 40.300781 5.523438 40.410156 C 6.066406 40.515625 6.609375 40.191406 6.714844 39.433594 C 7.148438 37.484375 7.367188 35.535156 7.582031 33.582031 C 7.691406 32.824219 8.015625 32.5 8.773438 32.5 C 10.183594 32.5 11.589844 32.5 13 32.5 C 13.757812 32.5 14.082031 32.714844 14.300781 33.476562 C 14.949219 35.425781 15.492188 37.375 15.601562 39.324219 C 15.601562 39.976562 16.035156 40.410156 16.574219 40.410156 C 17.226562 40.410156 17.550781 39.976562 17.550781 39.214844 C 17.660156 39.109375 17.660156 39 17.660156 38.890625 Z M 53.410156 30.550781 C 52.433594 30.550781 51.457031 30.550781 50.484375 30.550781 C 50.050781 30.550781 49.617188 30.765625 49.398438 31.199219 C 48.207031 33.800781 47.449219 36.398438 47.339844 39.324219 C 47.339844 40.082031 47.667969 40.515625 48.316406 40.515625 C 48.964844 40.515625 49.292969 40.082031 49.292969 39.324219 C 49.292969 37.265625 49.832031 35.316406 50.589844 33.367188 C 50.808594 32.824219 51.132812 32.5 51.785156 32.5 C 53.191406 32.5 54.707031 32.5 56.117188 32.5 C 56.984375 32.5 57.308594 32.824219 57.308594 33.582031 C 57.523438 35.535156 57.742188 37.484375 58.175781 39.324219 C 58.390625 40.082031 58.824219 40.515625 59.367188 40.410156 C 60.015625 40.300781 60.234375 39.757812 60.125 39 C 59.476562 35.535156 59.042969 32.066406 59.367188 28.601562 C 59.582031 25.351562 60.339844 22.207031 61.964844 19.285156 C 62.292969 18.742188 62.183594 18.089844 61.75 17.875 C 61.207031 17.550781 60.667969 17.765625 60.339844 18.308594 C 59.910156 19.066406 59.476562 19.824219 59.148438 20.691406 C 58.066406 23.398438 57.523438 26.324219 57.417969 29.25 C 57.417969 30.332031 57.089844 30.660156 56.117188 30.660156 C 55.140625 30.550781 54.273438 30.550781 53.410156 30.550781 Z M 32.5 29.574219 C 33.582031 29.574219 34.558594 29.574219 35.640625 29.574219 C 37.375 29.574219 39.214844 29.574219 40.949219 29.574219 C 41.167969 29.574219 41.382812 29.683594 41.492188 29.359375 C 41.707031 28.167969 41.273438 27.625 40.082031 27.625 C 35.101562 27.625 30.117188 27.625 25.132812 27.625 C 23.941406 27.625 23.726562 27.949219 23.726562 29.035156 C 23.726562 29.464844 23.832031 29.574219 24.265625 29.574219 C 26.867188 29.464844 29.683594 29.574219 32.5 29.574219 Z M 11.160156 40.410156 C 11.699219 40.410156 12.242188 40.410156 12.675781 40.410156 C 13 40.410156 13.433594 40.515625 13.648438 40.300781 C 13.757812 40.191406 13.542969 39.757812 13.542969 39.433594 C 13.542969 37.808594 13.214844 36.292969 12.675781 34.882812 C 12.566406 34.667969 12.457031 34.449219 12.132812 34.449219 C 11.375 34.449219 10.507812 34.449219 9.75 34.449219 C 9.425781 34.449219 9.316406 34.558594 9.316406 34.882812 C 9.207031 36.617188 8.882812 38.351562 8.558594 39.976562 C 8.449219 40.410156 8.667969 40.410156 8.992188 40.410156 C 9.75 40.410156 10.398438 40.410156 11.160156 40.410156 Z M 53.734375 40.410156 C 54.492188 40.410156 55.25 40.410156 56.007812 40.410156 C 56.226562 40.410156 56.332031 40.410156 56.332031 40.082031 C 55.898438 38.351562 55.683594 36.617188 55.464844 34.882812 C 55.464844 34.558594 55.359375 34.558594 55.035156 34.558594 C 54.273438 34.558594 53.515625 34.558594 52.757812 34.558594 C 52.324219 34.558594 52.214844 34.667969 52.109375 35.101562 C 51.457031 36.832031 51.351562 38.566406 51.132812 40.300781 C 51.132812 40.625 51.351562 40.515625 51.457031 40.515625 C 52.324219 40.410156 52.976562 40.410156 53.734375 40.410156 Z M 33.148438 17.660156 C 32.824219 19.5 31.851562 20.800781 30.875 22.101562 C 30.226562 22.859375 29.792969 23.726562 29.574219 24.699219 C 29.359375 25.566406 29.359375 25.566406 30.332031 25.566406 C 30.660156 25.566406 31.199219 25.675781 31.417969 25.457031 C 31.742188 25.242188 31.523438 24.808594 31.523438 24.484375 C 31.632812 23.941406 31.957031 23.507812 32.5 23.507812 C 33.042969 23.507812 33.367188 23.832031 33.476562 24.375 C 33.476562 24.699219 33.367188 25.242188 33.582031 25.351562 C 33.800781 25.566406 34.339844 25.457031 34.667969 25.457031 C 34.773438 25.457031 34.882812 25.457031 34.992188 25.457031 C 35.425781 25.566406 35.535156 25.351562 35.535156 24.917969 C 35.535156 24.265625 35.535156 23.507812 35.425781 22.859375 C 35.101562 21.015625 34.449219 19.285156 33.148438 17.660156 Z M 8.667969 44.417969 C 8.882812 44.417969 8.992188 44.417969 9.207031 44.417969 C 10.726562 44.417969 10.726562 44.417969 10.726562 42.898438 C 10.726562 42.574219 10.617188 42.464844 10.292969 42.464844 C 9.640625 42.464844 8.882812 42.464844 8.234375 42.464844 C 6.714844 42.464844 6.714844 42.464844 6.714844 43.984375 C 6.714844 44.308594 6.824219 44.417969 7.148438 44.417969 C 7.582031 44.417969 8.125 44.417969 8.667969 44.417969 Z M 14.625 44.417969 C 14.839844 44.417969 14.949219 44.417969 15.167969 44.417969 C 16.683594 44.417969 16.683594 44.417969 16.683594 42.898438 C 16.683594 42.792969 16.683594 42.792969 16.683594 42.683594 C 16.683594 42.464844 16.574219 42.359375 16.359375 42.359375 C 15.273438 42.359375 14.082031 42.359375 13 42.359375 C 12.785156 42.359375 12.675781 42.464844 12.785156 42.574219 C 12.785156 43.117188 12.675781 43.765625 12.890625 44.199219 C 13 44.523438 13.757812 44.308594 14.191406 44.308594 C 14.191406 44.417969 14.410156 44.417969 14.625 44.417969 Z M 20.691406 42.359375 C 20.476562 42.359375 20.367188 42.359375 20.148438 42.359375 C 18.632812 42.359375 18.632812 42.359375 18.632812 43.875 C 18.632812 44.199219 18.742188 44.308594 19.066406 44.308594 C 20.148438 44.308594 21.125 44.308594 22.207031 44.308594 C 22.535156 44.308594 22.640625 44.199219 22.640625 43.875 C 22.640625 42.359375 22.75 42.359375 21.125 42.359375 C 20.910156 42.359375 20.800781 42.359375 20.691406 42.359375 Z M 26.542969 42.359375 C 26.324219 42.359375 26.214844 42.359375 26 42.359375 C 24.484375 42.359375 24.484375 42.359375 24.484375 43.875 C 24.484375 43.875 24.484375 43.984375 24.484375 43.984375 C 24.484375 44.308594 24.589844 44.308594 24.808594 44.308594 C 25.890625 44.308594 26.976562 44.308594 28.058594 44.308594 C 28.273438 44.308594 28.382812 44.199219 28.382812 43.984375 C 28.601562 42.359375 28.492188 42.359375 26.976562 42.359375 C 26.867188 42.359375 26.757812 42.359375 26.542969 42.359375 Z M 32.5 44.417969 C 32.714844 44.417969 32.824219 44.417969 33.042969 44.417969 C 34.667969 44.417969 34.667969 44.417969 34.558594 42.792969 C 34.558594 42.464844 34.449219 42.359375 34.125 42.359375 C 33.476562 42.359375 32.714844 42.359375 32.066406 42.359375 C 30.441406 42.359375 30.441406 42.359375 30.550781 43.984375 C 30.550781 44.199219 30.660156 44.308594 30.875 44.308594 C 31.417969 44.417969 31.957031 44.417969 32.5 44.417969 Z M 38.457031 44.417969 C 38.675781 44.417969 38.785156 44.417969 39 44.417969 C 40.515625 44.417969 40.515625 44.417969 40.515625 42.898438 C 40.515625 42.574219 40.410156 42.464844 40.082031 42.464844 C 39.433594 42.464844 38.675781 42.464844 38.023438 42.464844 C 36.507812 42.464844 36.507812 42.464844 36.507812 43.984375 C 36.507812 43.984375 36.507812 44.089844 36.507812 44.089844 C 36.507812 44.417969 36.617188 44.417969 36.832031 44.417969 C 37.375 44.417969 37.917969 44.417969 38.457031 44.417969 Z M 44.308594 44.417969 C 44.523438 44.417969 44.632812 44.417969 44.851562 44.417969 C 46.367188 44.417969 46.367188 44.417969 46.367188 42.898438 C 46.367188 42.574219 46.257812 42.464844 45.933594 42.464844 C 45.285156 42.464844 44.523438 42.464844 43.875 42.464844 C 42.359375 42.464844 42.359375 42.464844 42.359375 43.984375 C 42.359375 44.308594 42.464844 44.417969 42.792969 44.417969 C 43.332031 44.417969 43.875 44.417969 44.308594 44.417969 Z M 50.265625 42.359375 C 49.726562 42.359375 49.183594 42.25 48.75 42.359375 C 47.773438 42.464844 48.535156 43.226562 48.316406 43.765625 C 48.207031 44.089844 48.207031 44.417969 48.75 44.417969 C 49.398438 44.417969 50.160156 44.417969 50.808594 44.417969 C 52.324219 44.417969 52.324219 44.417969 52.324219 42.898438 C 52.324219 42.574219 52.214844 42.464844 51.890625 42.464844 C 51.351562 42.464844 50.808594 42.359375 50.265625 42.359375 Z M 56.226562 44.417969 C 56.441406 44.417969 56.550781 44.417969 56.765625 44.417969 C 58.390625 44.417969 58.390625 44.417969 58.285156 42.792969 C 58.285156 42.464844 58.175781 42.359375 57.851562 42.359375 C 57.199219 42.359375 56.441406 42.359375 55.792969 42.359375 C 54.167969 42.359375 54.167969 42.359375 54.273438 43.984375 C 54.273438 44.199219 54.382812 44.308594 54.601562 44.308594 C 55.140625 44.417969 55.683594 44.417969 56.226562 44.417969 Z M 3.792969 44.417969 C 4.765625 44.417969 4.765625 44.417969 4.765625 43.550781 C 4.765625 42.464844 4.765625 42.464844 3.683594 42.464844 C 2.707031 42.464844 2.707031 42.464844 2.707031 43.441406 C 2.707031 44.417969 2.707031 44.417969 3.792969 44.417969 Z M 62.183594 43.332031 C 62.183594 42.359375 62.183594 42.359375 61.425781 42.359375 C 60.125 42.359375 60.125 42.359375 60.125 43.117188 C 60.125 44.308594 60.125 44.308594 60.882812 44.308594 C 62.183594 44.417969 62.183594 44.417969 62.183594 43.332031 Z M 62.183594 43.332031 "/>
</g>
</svg>
