<?xml version="1.0" encoding="UTF-8"?>
<svg xmlns="http://www.w3.org/2000/svg" xmlns:xlink="http://www.w3.org/1999/xlink" width="62px" height="62px" viewBox="0 0 62 62" version="1.1">
<g id="surface1">
<path style=" stroke:none;fill-rule:nonzero;fill:rgb(0.392157%,50.588235%,96.078431%);fill-opacity:1;" d="M 10.230469 8.164062 C 24.179688 8.164062 38.027344 8.164062 52.082031 8.164062 C 52.082031 7.648438 52.082031 7.128906 52.082031 6.613281 C 52.082031 5.890625 52.492188 5.476562 53.214844 5.476562 C 55.386719 5.476562 57.65625 5.476562 59.832031 5.476562 C 60.550781 5.476562 60.964844 5.890625 61.070312 6.613281 C 61.070312 6.714844 61.070312 6.921875 61.070312 7.128906 C 61.070312 16.015625 61.070312 24.898438 61.070312 33.792969 C 61.070312 35.03125 60.757812 35.441406 59.414062 35.441406 C 57.449219 35.441406 55.386719 35.441406 53.421875 35.441406 C 52.492188 35.441406 52.082031 35.132812 52.082031 34.101562 C 52.082031 33.683594 52.082031 33.167969 52.082031 32.648438 C 38.128906 32.648438 24.285156 32.648438 10.230469 32.648438 C 10.230469 33.066406 10.230469 33.585938 10.230469 34 C 10.230469 34.925781 9.816406 35.34375 8.886719 35.34375 C 6.921875 35.34375 4.859375 35.34375 2.890625 35.34375 C 1.648438 35.34375 1.449219 35.132812 1.449219 33.890625 C 1.449219 29.140625 1.449219 24.492188 1.449219 19.734375 C 1.449219 15.5 1.449219 11.265625 1.449219 7.027344 C 1.449219 5.785156 1.648438 5.582031 2.890625 5.582031 C 4.859375 5.582031 6.820312 5.582031 8.785156 5.582031 C 9.714844 5.582031 10.230469 5.992188 10.230469 7.027344 C 10.230469 7.234375 10.230469 7.648438 10.230469 8.164062 Z M 29.449219 19.117188 C 28.625 18.183594 27.691406 17.257812 26.867188 16.328125 C 26.65625 16.121094 26.558594 15.601562 26.65625 15.398438 C 26.96875 14.464844 27.800781 14.363281 28.414062 14.984375 C 29.351562 15.914062 30.171875 16.84375 31.101562 17.773438 C 32.859375 17.148438 34.40625 16.429688 36.164062 15.808594 C 36.582031 15.707031 37.199219 15.5 37.613281 16.015625 C 38.128906 16.742188 37.921875 17.464844 36.890625 17.773438 C 35.441406 18.292969 33.890625 18.90625 32.449219 19.425781 C 32.136719 19.53125 31.621094 19.632812 31.414062 19.941406 C 30.585938 21.082031 29.863281 22.320312 29.035156 23.558594 C 29.863281 24.285156 30.585938 24.898438 31.308594 25.523438 C 32.035156 26.140625 32.859375 26.765625 32.648438 28 C 32.550781 28.726562 32.648438 29.449219 32.648438 30.171875 C 39.164062 30.171875 45.570312 30.171875 52.082031 30.171875 C 52.082031 23.457031 52.082031 16.84375 52.082031 10.125 C 38.128906 10.125 24.285156 10.125 10.335938 10.125 C 10.335938 16.84375 10.335938 23.457031 10.335938 30.171875 C 17.050781 30.171875 23.765625 30.171875 30.585938 30.171875 C 30.484375 28.933594 31 27.59375 29.550781 26.65625 C 29.351562 26.558594 29.140625 26.351562 28.933594 26.140625 C 28 25.109375 26.96875 24.492188 25.523438 24.699219 C 25.007812 24.800781 24.386719 24.179688 24.386719 23.664062 C 24.386719 23.042969 24.800781 22.628906 25.523438 22.628906 C 25.933594 22.628906 26.25 22.628906 26.65625 22.628906 C 27.074219 22.628906 27.28125 22.527344 27.484375 22.113281 C 28 21.285156 28.726562 20.25 29.449219 19.117188 Z M 58.691406 33.066406 C 58.691406 24.492188 58.691406 16.015625 58.691406 7.542969 C 57.140625 7.542969 55.699219 7.542969 54.148438 7.542969 C 54.148438 16.015625 54.148438 24.59375 54.148438 33.066406 C 55.699219 33.066406 57.140625 33.066406 58.691406 33.066406 Z M 3.515625 7.542969 C 3.515625 16.121094 3.515625 24.59375 3.515625 33.066406 C 5.066406 33.066406 6.507812 33.066406 8.058594 33.066406 C 8.058594 24.492188 8.058594 16.015625 8.058594 7.542969 C 6.507812 7.542969 5.066406 7.542969 3.515625 7.542969 Z M 3.515625 7.542969 "/>
<path style=" stroke:none;fill-rule:nonzero;fill:rgb(0.392157%,50.588235%,96.078431%);fill-opacity:1;" d="M 39.164062 62 C 36.269531 62.308594 33.792969 59.414062 34.199219 56.730469 C 34.40625 55.492188 34.824219 54.25 35.441406 53.113281 C 36.269531 51.566406 37.199219 50.015625 38.027344 48.464844 C 38.648438 47.429688 39.679688 47.742188 40.09375 48.359375 C 41.542969 50.734375 42.984375 53.007812 43.816406 55.800781 C 44.640625 58.691406 42.984375 61.277344 40.199219 62.101562 C 39.785156 62.101562 39.371094 62 39.164062 62 Z M 39.164062 50.734375 C 39.058594 50.734375 38.957031 50.734375 38.851562 50.734375 C 38.027344 52.492188 37.199219 54.148438 36.476562 55.898438 C 35.957031 57.042969 36.164062 58.175781 36.992188 59 C 37.714844 59.726562 38.648438 60.140625 39.785156 59.726562 C 41.335938 59.207031 42.058594 57.96875 41.75 56.523438 C 41.335938 54.457031 40.199219 52.601562 39.164062 50.734375 Z M 39.164062 50.734375 "/>
<path style=" stroke:none;fill-rule:nonzero;fill:rgb(0.392157%,50.588235%,96.078431%);fill-opacity:1;" d="M 31.101562 49.085938 C 28.933594 49.292969 26.867188 47.121094 26.558594 45.15625 C 26.25 43.5 26.96875 41.949219 27.59375 40.609375 C 28.316406 38.957031 29.351562 37.507812 30.171875 35.957031 C 30.691406 35.03125 31.722656 35.132812 32.242188 35.859375 C 32.859375 36.785156 33.375 37.714844 33.890625 38.648438 C 34.515625 39.992188 35.234375 41.433594 35.75 42.78125 C 36.890625 46.085938 34.199219 49.292969 31.101562 49.085938 Z M 31.308594 38.335938 C 30.691406 38.957031 29.035156 42.367188 28.726562 43.609375 C 28.207031 45.363281 29.757812 47.222656 31.515625 47.015625 C 32.964844 46.914062 34.308594 45.464844 33.890625 43.816406 C 33.375 41.75 32.34375 39.992188 31.308594 38.335938 Z M 31.308594 38.335938 "/>
<path style=" stroke:none;fill-rule:nonzero;fill:rgb(0.392157%,50.588235%,96.078431%);fill-opacity:1;" d="M 22.628906 59.414062 C 20.050781 59.625 17.773438 56.933594 18.699219 53.941406 C 19.324219 51.875 20.457031 50.015625 21.601562 48.257812 C 22.113281 47.429688 23.042969 47.429688 23.558594 48.359375 C 24.699219 50.21875 25.835938 52.082031 26.449219 54.148438 C 27.175781 56.730469 25.523438 58.800781 23.457031 59.414062 C 23.25 59.519531 22.941406 59.414062 22.628906 59.414062 Z M 22.628906 57.351562 C 23.871094 57.351562 25.007812 56.316406 24.699219 55.285156 C 24.285156 53.835938 23.558594 52.492188 22.941406 51.148438 C 22.941406 51.050781 22.527344 51.050781 22.421875 51.148438 C 21.90625 52.285156 21.285156 53.421875 20.769531 54.664062 C 20.25 56.007812 21.285156 57.351562 22.628906 57.351562 Z M 22.628906 57.351562 "/>
</g>
</svg>
