<?xml version="1.0" encoding="UTF-8"?>
<svg xmlns="http://www.w3.org/2000/svg" xmlns:xlink="http://www.w3.org/1999/xlink" width="72px" height="59px" viewBox="0 0 72 59" version="1.1">
<g id="surface1">
<path style=" stroke:none;fill-rule:nonzero;fill:rgb(0.392157%,50.588235%,96.078431%);fill-opacity:1;" d="M 64.992188 56.816406 C 64.605469 57.875 63.988281 58.691406 62.832031 58.925781 C 62.582031 58.984375 62.308594 59 62.039062 59 C 44.675781 59 27.308594 59 9.9375 59 C 7.945312 59 6.765625 57.566406 7.058594 55.574219 C 7.992188 49.316406 8.90625 43.050781 9.835938 36.792969 C 10.617188 31.46875 11.410156 26.128906 12.203125 20.804688 C 12.410156 19.425781 13.496094 18.453125 14.863281 18.445312 C 17.316406 18.429688 19.765625 18.445312 22.226562 18.445312 C 22.886719 18.445312 23.292969 18.8125 23.292969 19.363281 C 23.292969 19.921875 22.886719 20.277344 22.214844 20.285156 C 19.886719 20.285156 17.566406 20.285156 15.238281 20.285156 C 14.316406 20.285156 14.070312 20.476562 13.929688 21.421875 C 13.304688 25.597656 12.695312 29.804688 12.066406 33.988281 C 11.292969 39.226562 10.523438 44.46875 9.746094 49.695312 C 9.429688 51.78125 9.121094 53.863281 8.824219 55.953125 C 8.710938 56.695312 9.082031 57.128906 9.8125 57.15625 C 9.929688 57.15625 10.035156 57.15625 10.152344 57.15625 C 27.371094 57.15625 44.589844 57.15625 61.808594 57.15625 C 62.128906 57.15625 62.460938 57.207031 62.742188 57.007812 C 63.113281 56.75 63.210938 56.386719 63.152344 55.953125 C 62.269531 49.996094 61.382812 44.035156 60.496094 38.078125 C 59.6875 32.589844 58.878906 27.109375 58.070312 21.632812 C 57.894531 20.457031 57.722656 20.277344 56.554688 20.277344 C 55.207031 20.277344 53.875 20.277344 52.53125 20.277344 C 51.816406 20.277344 51.402344 19.941406 51.390625 19.363281 C 51.390625 18.792969 51.800781 18.4375 52.515625 18.4375 C 54 18.4375 55.488281 18.4375 56.988281 18.4375 C 58.503906 18.4375 59.554688 19.386719 59.785156 20.910156 C 61.144531 30.128906 62.507812 39.347656 63.875 48.574219 C 64.210938 50.851562 64.539062 53.132812 64.886719 55.402344 C 64.894531 55.496094 64.953125 55.585938 64.980469 55.667969 L 64.980469 56.816406 Z M 64.992188 56.816406 "/>
<path style=" stroke:none;fill-rule:nonzero;fill:rgb(0.392157%,50.588235%,96.078431%);fill-opacity:1;" d="M 43.921875 0 C 44.714844 0.199219 45.546875 0.296875 46.324219 0.605469 C 47.238281 0.964844 47.40625 1.664062 46.71875 2.367188 C 45.097656 4.027344 43.472656 5.683594 41.832031 7.339844 C 41.59375 7.589844 41.480469 7.789062 41.628906 8.140625 C 41.761719 8.476562 41.898438 8.832031 41.933594 9.1875 C 42.058594 10.4375 42.804688 10.917969 43.921875 11.289062 C 44.921875 11.625 45.550781 11.53125 46.28125 10.703125 C 47.617188 9.1875 49.089844 7.800781 50.503906 6.367188 C 51.308594 5.558594 51.976562 5.710938 52.355469 6.804688 C 53.996094 11.492188 51.957031 16.78125 47.617188 19.097656 C 47.546875 19.136719 47.480469 19.171875 47.414062 19.207031 C 46.851562 19.488281 46.351562 19.355469 46.097656 18.871094 C 45.84375 18.386719 46.007812 17.882812 46.5625 17.582031 C 47.53125 17.066406 48.375 16.414062 49.097656 15.585938 C 50.71875 13.691406 51.441406 10.972656 50.929688 8.667969 C 50.71875 8.632812 50.648438 8.832031 50.535156 8.941406 C 49.136719 10.367188 47.726562 11.785156 46.332031 13.21875 C 45.925781 13.644531 45.515625 13.75 44.960938 13.554688 C 43.820312 13.136719 42.679688 12.753906 41.535156 12.382812 C 41.085938 12.230469 40.855469 11.972656 40.726562 11.523438 C 40.386719 10.324219 40.03125 9.136719 39.679688 7.9375 C 39.507812 7.40625 39.625 6.992188 40.023438 6.589844 C 41.386719 5.226562 42.734375 3.851562 44.074219 2.472656 C 44.203125 2.347656 44.386719 2.25 44.425781 1.972656 C 41.300781 1.535156 38.691406 2.453125 36.640625 4.902344 C 35.683594 6.039062 35.140625 7.375 34.898438 8.839844 C 34.765625 9.601562 34.367188 9.941406 33.777344 9.824219 C 33.230469 9.710938 32.988281 9.226562 33.105469 8.519531 C 33.875 4.007812 37.132812 0.792969 41.621094 0.0859375 C 41.710938 0.078125 41.796875 0.03125 41.890625 0 C 42.5625 0 43.242188 0 43.929688 0 Z M 43.921875 0 "/>
<path style=" stroke:none;fill-rule:nonzero;fill:rgb(0.392157%,50.588235%,96.078431%);fill-opacity:1;" d="M 51.878906 29.535156 C 51.828125 31.085938 51.035156 32.574219 49.308594 33.375 C 47.578125 34.175781 45.84375 34.003906 44.464844 32.664062 C 41.933594 30.226562 39.492188 27.683594 37.035156 25.148438 C 36.351562 24.425781 36.171875 23.5 36.472656 22.523438 C 36.558594 22.226562 36.539062 22.046875 36.316406 21.820312 C 32.460938 17.921875 28.640625 14.003906 24.773438 10.109375 C 24.179688 9.503906 23.335938 9.285156 22.605469 8.902344 C 22.144531 8.667969 21.789062 8.375 21.519531 7.929688 C 20.820312 6.824219 20.082031 5.71875 19.359375 4.621094 C 18.953125 3.992188 18.992188 3.640625 19.515625 3.097656 C 20.265625 2.335938 21.007812 1.570312 21.753906 0.820312 C 22.257812 0.308594 22.613281 0.265625 23.207031 0.65625 C 24.382812 1.445312 25.5625 2.25 26.742188 3.039062 C 27.039062 3.234375 27.234375 3.511719 27.359375 3.832031 C 27.957031 5.355469 28.945312 6.578125 30.097656 7.710938 C 33.453125 11.058594 36.753906 14.453125 40.070312 17.839844 C 40.328125 18.101562 40.53125 18.175781 40.890625 18.066406 C 41.972656 17.742188 42.886719 18.085938 43.664062 18.894531 C 45.507812 20.757812 47.34375 22.632812 49.1875 24.515625 C 49.660156 24.996094 50.148438 25.488281 50.617188 25.992188 C 51.429688 26.882812 51.847656 27.960938 51.863281 29.527344 Z M 50.0625 29.207031 C 50.0625 28.453125 49.828125 27.796875 49.324219 27.269531 C 46.996094 24.882812 44.671875 22.503906 42.324219 20.136719 C 41.855469 19.671875 41.378906 19.679688 40.917969 20.136719 C 40.09375 20.964844 39.285156 21.785156 38.480469 22.621094 C 38.019531 23.109375 38.011719 23.5625 38.464844 24.042969 C 40.824219 26.449219 43.167969 28.859375 45.5625 31.238281 C 46.394531 32.070312 47.4375 32.210938 48.5 31.730469 C 49.574219 31.265625 50.023438 30.355469 50.0625 29.207031 Z M 39.082031 19.480469 C 38.902344 19.277344 38.777344 19.136719 38.652344 19.007812 C 34.910156 15.207031 31.1875 11.402344 27.449219 7.613281 C 27.097656 7.253906 26.773438 6.882812 26.609375 6.40625 C 26.148438 5.0625 25.296875 4.074219 24.039062 3.441406 C 23.5625 3.183594 23.128906 2.542969 22.667969 2.628906 C 22.226562 2.714844 21.890625 3.355469 21.472656 3.714844 C 21.171875 3.96875 21.207031 4.179688 21.421875 4.472656 C 21.933594 5.199219 22.40625 5.929688 22.863281 6.675781 C 23.070312 6.992188 23.300781 7.234375 23.65625 7.375 C 25.042969 7.929688 26.160156 8.859375 27.203125 9.953125 C 30.4375 13.304688 33.726562 16.609375 37 19.941406 C 37.511719 20.460938 38.023438 20.464844 38.535156 19.949219 C 38.691406 19.789062 38.875 19.652344 39.082031 19.480469 Z M 39.082031 19.480469 "/>
<path style=" stroke:none;fill-rule:nonzero;fill:rgb(0.392157%,50.588235%,96.078431%);fill-opacity:1;" d="M 24.742188 33.800781 C 22.808594 33.703125 21.070312 32.675781 20.136719 30.511719 C 19.222656 28.390625 19.492188 26.316406 21.054688 24.625 C 23.277344 22.199219 25.648438 19.902344 27.957031 17.558594 C 28.363281 17.136719 28.90625 17.136719 29.265625 17.507812 C 29.660156 17.898438 29.628906 18.4375 29.164062 18.914062 C 27.023438 21.113281 24.867188 23.292969 22.714844 25.476562 C 22.035156 26.164062 21.570312 26.953125 21.5 27.933594 C 21.382812 29.511719 22.164062 30.898438 23.507812 31.558594 C 24.925781 32.25 26.574219 31.96875 27.746094 30.800781 C 29.371094 29.160156 31.003906 27.5 32.625 25.828125 C 32.742188 25.71875 32.863281 25.574219 32.996094 25.476562 C 33.398438 25.167969 33.816406 25.167969 34.179688 25.527344 C 34.53125 25.878906 34.542969 26.300781 34.28125 26.734375 C 34.242188 26.800781 34.191406 26.855469 34.140625 26.910156 C 32.34375 28.730469 30.570312 30.566406 28.757812 32.355469 C 27.746094 33.355469 26.484375 33.800781 24.742188 33.8125 Z M 24.742188 33.800781 "/>
<path style=" stroke:none;fill-rule:nonzero;fill:rgb(0.392157%,50.588235%,96.078431%);fill-opacity:1;" d="M 23.855469 54.402344 C 23.175781 54.402344 22.550781 54.214844 21.984375 53.835938 C 21.496094 53.503906 21.351562 53.007812 21.609375 52.550781 C 21.863281 52.097656 22.355469 51.980469 22.886719 52.238281 C 23.90625 52.75 24.46875 52.667969 25.261719 51.859375 C 26.773438 50.328125 28.882812 50.328125 30.386719 51.859375 C 31.175781 52.667969 31.769531 52.75 32.761719 52.238281 C 33.304688 51.957031 33.777344 52.074219 34.046875 52.53125 C 34.3125 52.980469 34.179688 53.472656 33.6875 53.808594 C 32.375 54.746094 30.539062 54.554688 29.320312 53.378906 C 28.152344 52.238281 27.476562 52.25 26.292969 53.394531 C 25.605469 54.058594 24.792969 54.394531 23.832031 54.394531 Z M 23.855469 54.402344 "/>
<path style=" stroke:none;fill-rule:nonzero;fill:rgb(0.392157%,50.588235%,96.078431%);fill-opacity:1;" d="M 51.703125 45.183594 C 50.710938 45.167969 49.875 44.792969 49.1875 44.082031 C 48.199219 43.082031 47.335938 43.082031 46.363281 44.082031 C 45.164062 45.308594 43.390625 45.546875 42.011719 44.675781 C 41.449219 44.316406 41.277344 43.800781 41.5625 43.320312 C 41.832031 42.855469 42.324219 42.765625 42.898438 43.0625 C 43.792969 43.523438 44.433594 43.421875 45.144531 42.703125 C 46.761719 41.078125 48.792969 41.070312 50.390625 42.703125 C 51.101562 43.421875 51.734375 43.523438 52.640625 43.082031 C 53.203125 42.789062 53.707031 42.902344 53.964844 43.363281 C 54.238281 43.851562 54.0625 44.371094 53.484375 44.710938 C 52.945312 45.035156 52.347656 45.21875 51.703125 45.199219 Z M 51.703125 45.183594 "/>
<path style=" stroke:none;fill-rule:nonzero;fill:rgb(0.392157%,50.588235%,96.078431%);fill-opacity:1;" d="M 32.023438 38.730469 C 31.34375 38.730469 30.722656 38.542969 30.15625 38.171875 C 29.660156 37.84375 29.515625 37.34375 29.765625 36.886719 C 30.015625 36.429688 30.519531 36.308594 31.042969 36.5625 C 32.085938 37.09375 32.625 37 33.464844 36.148438 C 34.929688 34.660156 37.054688 34.660156 38.519531 36.148438 C 39.351562 37 39.863281 37.09375 40.929688 36.570312 C 41.429688 36.335938 41.910156 36.464844 42.171875 36.878906 C 42.441406 37.328125 42.304688 37.832031 41.816406 38.171875 C 40.46875 39.097656 38.621094 38.863281 37.378906 37.59375 C 36.652344 36.863281 35.988281 36.691406 35.246094 37.058594 C 34.964844 37.195312 34.761719 37.417969 34.542969 37.632812 C 33.859375 38.351562 33.011719 38.714844 32.015625 38.722656 Z M 32.023438 38.730469 "/>
<path style=" stroke:none;fill-rule:nonzero;fill:rgb(0.392157%,50.588235%,96.078431%);fill-opacity:1;" d="M 56.273438 54.402344 C 55.28125 54.394531 54.4375 54.03125 53.734375 53.316406 C 52.714844 52.285156 51.878906 52.285156 50.875 53.316406 C 49.699219 54.527344 47.960938 54.765625 46.574219 53.914062 C 46 53.554688 45.816406 53.058594 46.089844 52.574219 C 46.363281 52.082031 46.851562 51.980469 47.457031 52.300781 C 48.3125 52.742188 48.980469 52.640625 49.660156 51.949219 C 51.316406 50.296875 53.320312 50.289062 54.949219 51.949219 C 55.625 52.640625 56.292969 52.75 57.144531 52.316406 C 57.75 52.007812 58.253906 52.117188 58.511719 52.613281 C 58.773438 53.109375 58.578125 53.605469 58.003906 53.945312 C 57.46875 54.265625 56.894531 54.4375 56.28125 54.425781 Z M 56.273438 54.402344 "/>
<path style=" stroke:none;fill-rule:nonzero;fill:rgb(0.392157%,50.588235%,96.078431%);fill-opacity:1;" d="M 23.457031 43.265625 C 23.4375 44.050781 22.707031 44.476562 22.113281 44.113281 C 22.019531 44.0625 21.9375 43.976562 21.851562 43.898438 C 20.957031 43.082031 20.089844 43.105469 19.210938 43.988281 C 18.148438 45.082031 16.898438 45.445312 15.433594 44.941406 C 15.195312 44.851562 14.949219 44.726562 14.730469 44.582031 C 14.226562 44.253906 14.09375 43.753906 14.359375 43.296875 C 14.621094 42.839844 15.125 42.703125 15.632812 43.003906 C 16.34375 43.414062 17.023438 43.433594 17.6875 42.917969 C 17.855469 42.78125 18.003906 42.59375 18.171875 42.4375 C 19.582031 41.089844 21.800781 41.160156 23.105469 42.585938 C 23.3125 42.800781 23.457031 43.042969 23.449219 43.265625 Z M 23.457031 43.265625 "/>
</g>
</svg>
