<?xml version="1.0" encoding="UTF-8"?>
<svg xmlns="http://www.w3.org/2000/svg" xmlns:xlink="http://www.w3.org/1999/xlink" width="70px" height="64px" viewBox="0 0 69 64" version="1.1">
<g id="surface1">
<path style=" stroke:none;fill-rule:evenodd;fill:rgb(0.392157%,50.588235%,96.078431%);fill-opacity:1;" d="M 40.039062 18.242188 C 40.039062 13.230469 40.039062 9.710938 40.148438 9.28125 C 40.253906 8.960938 40.460938 8.210938 40.664062 7.683594 C 41.824219 5.332031 44.535156 4.050781 47.046875 4.691406 C 49.347656 5.332031 50.917969 7.148438 51.230469 9.390625 C 51.433594 10.449219 51.230469 10.992188 50.703125 11.308594 C 49.761719 11.839844 48.820312 11.199219 48.820312 9.917969 C 48.820312 8.960938 47.777344 7.566406 46.730469 7.148438 C 46.101562 6.832031 44.957031 6.933594 44.222656 7.25 C 43.488281 7.566406 42.761719 8.316406 42.445312 9.066406 C 42.230469 9.601562 42.230469 9.808594 42.136719 18.242188 L 42.136719 26.882812 L 41.714844 27.199219 C 41.292969 27.519531 40.976562 27.632812 40.460938 27.410156 C 40.039062 26.992188 40.039062 27.199219 40.039062 18.242188 Z M 40.039062 18.242188 "/>
<path style=" stroke:none;fill-rule:evenodd;fill:rgb(0.392157%,50.588235%,96.078431%);fill-opacity:1;" d="M 44.535156 18.242188 L 51.433594 18.242188 L 51.433594 20.589844 L 44.535156 20.589844 Z M 44.535156 18.242188 "/>
<path style=" stroke:none;fill-rule:evenodd;fill:rgb(0.392157%,50.588235%,96.078431%);fill-opacity:1;" d="M 44.535156 22.71875 L 51.433594 22.71875 L 51.433594 25.167969 L 44.535156 25.167969 Z M 44.535156 22.71875 "/>
<path style=" stroke:none;fill-rule:evenodd;fill:rgb(0.392157%,50.588235%,96.078431%);fill-opacity:1;" d="M 60.109375 32.433594 C 59.589844 31.25 58.648438 29.648438 57.820312 28.691406 L 57.398438 28.160156 L 57.082031 28.589844 C 55.722656 29.96875 53.738281 30.082031 52.378906 28.691406 C 52.066406 28.367188 51.75 27.949219 51.75 27.730469 L 51.640625 27.410156 L 44.328125 27.410156 L 44.222656 27.730469 C 44.019531 28.269531 43.175781 29.007812 42.652344 29.332031 C 41.507812 29.96875 39.941406 29.757812 38.996094 28.800781 C 38.265625 28.050781 38.058594 27.519531 37.949219 26.132812 C 37.949219 25.492188 37.84375 25.066406 37.84375 25.066406 C 37.84375 25.066406 37.429688 25.28125 37.011719 25.492188 C 35.753906 26.242188 33.980469 27.089844 32.824219 27.519531 C 29.375 28.691406 26.03125 28.800781 22.269531 27.949219 C 20.492188 27.519531 18.503906 27.308594 17.140625 27.519531 C 12.753906 28.269531 9.203125 31.46875 7.945312 35.839844 C 7.730469 36.691406 7.636719 37.117188 7.636719 38.933594 C 7.636719 41.167969 7.730469 41.601562 8.359375 43.308594 C 9.203125 45.230469 10.773438 47.25 12.339844 48.433594 C 15.160156 50.351562 18.503906 50.882812 21.953125 49.917969 C 27.175781 48.53125 32.410156 49.390625 37.214844 52.480469 C 38.996094 53.648438 40.878906 54.398438 42.96875 54.71875 C 44.328125 54.933594 46.9375 54.933594 48.300781 54.71875 C 58.441406 52.910156 64.1875 42.03125 60.109375 32.433594 Z M 32.933594 43.089844 C 32.617188 43.410156 32.511719 43.410156 31.882812 43.308594 C 30.941406 43.199219 30.003906 42.769531 29.277344 42.03125 C 28.539062 41.390625 28.023438 41.066406 27.285156 41.066406 C 26.554688 41.066406 26.03125 41.28125 25.402344 41.917969 C 24.257812 43.089844 22.582031 43.519531 21.121094 43.089844 C 20.277344 42.882812 19.761719 42.558594 19.023438 41.808594 C 18.394531 41.167969 17.988281 41.066406 17.140625 41.066406 C 16.417969 41.066406 15.890625 41.28125 15.160156 42.03125 C 13.484375 43.632812 11.179688 43.730469 11.179688 42.242188 C 11.179688 41.710938 11.601562 41.28125 12.339844 41.167969 C 13.0625 41.066406 13.277344 40.960938 14.007812 40.210938 C 14.738281 39.566406 15.367188 39.148438 16.203125 38.933594 C 17.566406 38.609375 19.023438 39.039062 20.277344 40.109375 C 21.746094 41.492188 22.789062 41.390625 24.355469 40 C 26.03125 38.398438 28.429688 38.398438 30.21875 40 C 31.050781 40.75 31.363281 40.960938 32.195312 41.066406 C 33.246094 41.390625 33.667969 42.351562 32.933594 43.089844 Z M 32.511719 35.199219 C 31.15625 33.917969 29.90625 33.917969 28.539062 35.199219 C 27.808594 35.949219 26.769531 36.367188 25.925781 36.480469 C 25.296875 36.589844 25.195312 36.480469 24.886719 36.269531 C 24.574219 36.050781 24.574219 35.839844 24.574219 35.519531 C 24.574219 34.882812 24.980469 34.558594 25.824219 34.449219 C 26.453125 34.351562 26.769531 34.132812 27.707031 33.28125 C 28.023438 33.066406 28.539062 32.640625 28.960938 32.53125 C 29.589844 32.316406 29.796875 32.210938 30.734375 32.316406 C 31.988281 32.316406 32.824219 32.75 33.871094 33.601562 C 34.609375 34.351562 35.332031 34.558594 36.066406 34.449219 C 36.695312 34.351562 37.117188 34.132812 37.84375 33.390625 C 38.78125 32.53125 39.625 32.210938 40.976562 32.316406 C 42.230469 32.433594 42.859375 32.640625 44.019531 33.710938 C 44.742188 34.351562 45.273438 34.558594 45.898438 34.558594 C 46.308594 34.558594 46.839844 35.199219 46.839844 35.632812 C 46.839844 35.839844 46.625 36.050781 46.417969 36.367188 C 46.101562 36.691406 45.996094 36.800781 45.273438 36.691406 C 44.328125 36.589844 43.390625 36.160156 42.652344 35.410156 C 41.824219 34.667969 41.398438 34.449219 40.664062 34.449219 C 39.941406 34.449219 39.410156 34.667969 38.6875 35.410156 C 38.371094 35.730469 37.742188 36.160156 37.320312 36.367188 C 36.695312 36.691406 36.488281 36.691406 35.546875 36.691406 C 34.390625 36.480469 33.453125 36.050781 32.511719 35.199219 Z M 58.964844 42.667969 C 58.542969 43.730469 56.453125 43.519531 54.992188 42.132812 C 54.261719 41.390625 53.738281 41.167969 53.003906 41.167969 C 52.171875 41.167969 51.859375 41.28125 51.121094 41.917969 C 50.390625 42.667969 49.867188 42.992188 49.035156 43.199219 C 47.671875 43.632812 45.996094 43.089844 44.851562 42.03125 C 44.222656 41.390625 43.703125 41.167969 42.96875 41.167969 C 42.230469 41.167969 41.921875 41.28125 40.976562 42.03125 C 40.039062 42.769531 39.203125 43.199219 38.265625 43.308594 C 37.636719 43.410156 37.527344 43.410156 37.214844 42.992188 C 36.488281 42.242188 36.902344 41.28125 37.949219 41.167969 C 38.6875 41.066406 39.203125 40.851562 39.941406 40.109375 C 40.570312 39.46875 41.292969 39.148438 42.136719 38.933594 C 43.390625 38.71875 44.851562 39.148438 45.789062 40 C 47.253906 41.390625 48.40625 41.492188 49.867188 40.210938 C 50.8125 39.46875 51.433594 39.039062 52.378906 38.933594 C 53.632812 38.71875 54.992188 39.148438 56.246094 40.210938 C 56.972656 40.851562 57.191406 40.960938 57.914062 41.066406 C 58.757812 41.390625 59.277344 41.917969 58.964844 42.667969 Z M 58.964844 42.667969 "/>
<path style=" stroke:none;fill-rule:evenodd;fill:rgb(0.392157%,50.588235%,96.078431%);fill-opacity:1;" d="M 53.738281 27.089844 L 53.425781 26.769531 L 53.425781 18.132812 C 53.425781 10.769531 53.425781 9.390625 53.632812 8.851562 C 54.367188 5.867188 57.191406 4.050781 60.21875 4.691406 C 61.054688 4.910156 62.207031 5.441406 62.835938 5.96875 C 63.980469 6.933594 64.71875 8.640625 64.71875 10.132812 C 64.71875 10.882812 64.71875 10.992188 64.296875 11.308594 C 63.980469 11.632812 63.777344 11.632812 63.460938 11.632812 C 62.835938 11.519531 62.523438 11.199219 62.414062 10.351562 C 62.308594 9.390625 62.101562 8.851562 61.578125 8.210938 C 60.640625 7.039062 59.074219 6.832031 57.710938 7.46875 C 56.972656 7.789062 56.5625 8.316406 56.140625 9.066406 C 55.828125 9.601562 55.828125 9.601562 55.828125 18.351562 L 55.722656 27.089844 L 55.40625 27.199219 C 54.886719 27.632812 54.152344 27.519531 53.738281 27.089844 Z M 53.738281 27.089844 "/>
<path style=" stroke:none;fill-rule:evenodd;fill:rgb(0.392157%,50.588235%,96.078431%);fill-opacity:1;" d="M 65.863281 41.167969 L 65.65625 42.558594 C 64.296875 50.351562 58.441406 56.851562 50.917969 58.769531 C 45.480469 60.160156 39.941406 59.410156 35.128906 56.433594 C 32.410156 54.71875 30.628906 54.082031 28.230469 53.867188 C 26.554688 53.648438 25.089844 53.867188 22.789062 54.398438 C 20.808594 54.933594 18.082031 55.039062 16.203125 54.71875 C 11.179688 53.867188 6.792969 50.558594 4.59375 45.867188 C 3.972656 44.589844 3.449219 43.089844 3.242188 41.710938 C 3.136719 40.960938 3.136719 42.132812 3.136719 52.367188 L 3.136719 64 L 3.136719 0 L 3.136719 18.449219 C 3.136719 36.589844 3.136719 36.800781 3.34375 35.730469 C 4.390625 30.289062 8.261719 25.710938 13.277344 23.890625 C 16.621094 22.71875 19.554688 22.507812 23.101562 23.46875 C 24.574219 23.890625 24.777344 23.890625 26.863281 23.890625 C 28.746094 23.890625 29.277344 23.890625 30.109375 23.566406 C 31.679688 23.148438 32.933594 22.609375 34.5 21.648438 C 35.960938 20.691406 37.117188 20.160156 37.636719 19.949219 C 37.949219 19.839844 37.949219 19.839844 37.949219 21.230469 L 37.949219 22.507812 L 37.429688 22.832031 C 37.117188 22.933594 36.382812 23.46875 35.753906 23.789062 C 33.453125 25.167969 31.050781 26.03125 28.335938 26.242188 C 26.554688 26.449219 24.777344 26.242188 22.582031 25.710938 C 21.015625 25.28125 20.699219 25.28125 18.816406 25.28125 C 17.042969 25.28125 16.621094 25.28125 15.574219 25.601562 C 10.558594 26.992188 6.792969 31.039062 5.753906 36.269531 C 5.539062 37.550781 5.539062 40 5.753906 41.28125 C 6.792969 46.609375 10.558594 50.558594 15.574219 51.949219 C 16.621094 52.269531 17.042969 52.269531 18.710938 52.269531 C 20.492188 52.269531 20.808594 52.269531 22.269531 51.839844 C 24.574219 51.308594 25.824219 51.089844 27.707031 51.199219 C 30.84375 51.308594 33.246094 52.160156 36.175781 53.96875 C 39.3125 55.890625 42.230469 56.75 45.679688 56.75 C 49.238281 56.75 52.378906 55.789062 55.308594 53.867188 C 59.386719 51.199219 61.992188 47.25 63.148438 42.449219 C 63.558594 40.851562 63.667969 37.96875 63.460938 36.269531 C 62.929688 32.433594 61.363281 28.910156 58.757812 26.03125 L 58.019531 25.601562 L 58.019531 22.398438 L 59.074219 23.25 C 62.414062 26.242188 64.8125 30.609375 65.550781 35.089844 L 65.757812 36.480469 "/>
</g>
</svg>
