<?xml version="1.0" encoding="UTF-8"?>
<svg xmlns="http://www.w3.org/2000/svg" xmlns:xlink="http://www.w3.org/1999/xlink" width="55px" height="55px" viewBox="0 0 55 55" version="1.1">
<g id="surface1">
<path style=" stroke:none;fill-rule:nonzero;fill:rgb(0.392157%,50.588235%,96.078431%);fill-opacity:1;" d="M 39.695312 21.726562 C 39.695312 25.851562 39.695312 30.070312 39.695312 34.285156 C 40.148438 34.285156 40.515625 34.285156 40.976562 34.285156 C 41.070312 34.285156 41.25 34.101562 41.339844 34.011719 C 41.707031 33.457031 42.074219 32.910156 42.535156 32.449219 C 43.726562 31.445312 45.464844 31.898438 46.292969 33.089844 C 47.390625 34.648438 47.484375 36.390625 47.300781 38.136719 C 47.113281 39.324219 46.660156 40.425781 45.832031 41.25 C 45.648438 41.429688 45.464844 41.613281 45.195312 41.800781 C 47.113281 42.074219 48.488281 43.265625 49.957031 44.179688 C 50.511719 44.550781 51.054688 44.824219 51.609375 45.195312 C 51.976562 45.464844 52.160156 46.015625 51.886719 46.386719 C 51.609375 46.839844 51.148438 46.929688 50.601562 46.660156 C 49.226562 45.832031 47.851562 44.917969 46.386719 44.089844 C 45.832031 43.820312 45.285156 43.636719 44.640625 43.449219 C 43.359375 43.175781 42.074219 43.175781 40.792969 43.636719 C 40.148438 43.910156 39.511719 44.273438 38.863281 44.550781 C 36.113281 45.648438 33.457031 45.648438 30.890625 44.089844 C 30.070312 43.636719 29.148438 43.359375 28.140625 43.265625 C 26.765625 43.082031 25.484375 43.265625 24.292969 43.910156 C 22.640625 44.824219 20.898438 45.285156 18.976562 45.101562 C 17.695312 45.011719 16.589844 44.640625 15.488281 44 C 14.761719 43.542969 14.023438 43.359375 13.199219 43.265625 C 12.375 43.175781 11.550781 43.082031 10.726562 43.359375 C 9.898438 43.636719 9.074219 44 8.25 44.457031 C 7.148438 45.011719 6.140625 45.738281 5.042969 46.386719 C 4.675781 46.570312 4.035156 46.660156 3.761719 46.199219 C 3.484375 45.738281 3.574219 45.195312 4.125 44.917969 C 5.589844 44 6.964844 43.175781 8.429688 42.351562 C 9.167969 41.984375 10.082031 41.800781 10.820312 41.523438 C 11.089844 41.429688 11.273438 41.339844 11.273438 40.976562 C 11.273438 40.332031 11.273438 39.601562 11.273438 38.957031 C 11 39.050781 10.820312 39.050781 10.542969 39.140625 C 10.175781 39.140625 9.988281 39.050781 9.804688 38.679688 C 9.351562 37.765625 8.707031 36.851562 8.25 35.929688 C 7.976562 35.292969 7.332031 35.199219 6.875 34.832031 C 6.234375 34.375 5.410156 34.011719 4.765625 33.640625 C 4.214844 33.273438 4.214844 32.542969 4.765625 32.175781 C 5.589844 31.625 6.511719 31.167969 7.332031 30.707031 C 7.886719 30.429688 8.25 30.070312 8.523438 29.515625 C 8.890625 28.785156 9.261719 28.050781 9.714844 27.320312 C 10.175781 26.488281 10.449219 26.488281 11.363281 26.765625 C 11.363281 26.582031 11.363281 26.398438 11.363281 26.214844 C 11.363281 20.988281 11.457031 15.859375 11.363281 10.636719 C 11.273438 7.148438 13.929688 4.675781 16.863281 4.125 C 17.601562 4.035156 18.238281 3.945312 18.976562 3.945312 C 20.167969 3.945312 21.359375 3.945312 22.457031 3.945312 C 23.011719 3.207031 23.464844 2.570312 23.925781 1.925781 C 25.023438 0.734375 27.136719 0.734375 28.324219 1.832031 C 29.332031 2.839844 29.886719 4.035156 30.070312 5.410156 C 30.25 7.054688 29.976562 8.613281 29.054688 10.082031 C 28.234375 11.273438 27.042969 11.917969 25.574219 11.734375 C 24.476562 11.550781 23.648438 10.726562 23.101562 9.714844 C 22.824219 9.074219 22.457031 8.890625 21.726562 8.984375 C 20.625 9.074219 19.429688 8.984375 18.332031 9.074219 C 17.324219 9.167969 17.050781 9.535156 17.050781 10.542969 C 17.050781 12.464844 17.050781 14.300781 17.050781 16.226562 C 17.050781 16.226562 17.140625 16.320312 17.140625 16.320312 C 17.324219 16.320312 17.511719 16.320312 17.695312 16.320312 C 22.917969 16.320312 28.140625 16.320312 33.363281 16.320312 C 33.550781 16.320312 33.734375 16.320312 34.011719 16.320312 C 34.011719 16.136719 34.011719 15.949219 34.011719 15.675781 C 34.011719 13.75 33.917969 11.824219 34.011719 9.804688 C 34.011719 8.613281 34.554688 7.515625 35.386719 6.601562 C 36.945312 4.859375 38.863281 4.035156 41.160156 4.035156 C 42.351562 4.035156 43.542969 4.035156 44.824219 4.035156 C 45.101562 4.035156 45.285156 3.945312 45.464844 3.667969 C 46.015625 2.476562 46.75 1.554688 48.214844 1.195312 C 49.226562 1.011719 50.140625 1.195312 50.875 1.925781 C 51.976562 2.839844 52.523438 4.035156 52.707031 5.410156 C 52.984375 7.148438 52.707031 8.800781 51.699219 10.175781 C 50.234375 12.285156 47.667969 12.464844 46.015625 10.265625 C 45.738281 9.898438 45.554688 9.535156 45.285156 9.074219 C 44.640625 9.074219 43.910156 9.074219 43.175781 9.074219 C 42.445312 9.074219 41.707031 9.074219 40.886719 9.074219 C 41.523438 10.265625 42.167969 11.457031 42.804688 12.554688 C 42.988281 12.925781 43.542969 13.109375 43.910156 13.386719 C 44.640625 13.839844 45.375 14.207031 46.109375 14.574219 C 46.75 14.945312 46.75 15.675781 46.109375 16.042969 C 45.195312 16.589844 44.179688 17.140625 43.265625 17.695312 C 43.082031 17.785156 42.898438 17.964844 42.714844 18.148438 C 42.167969 19.070312 41.613281 20.074219 41.070312 21.082031 C 40.886719 21.910156 40.332031 22.089844 39.695312 21.726562 C 39.785156 21.726562 39.785156 21.726562 39.695312 21.726562 Z M 39.785156 37.859375 C 40.699219 37.859375 41.613281 37.859375 42.625 37.859375 C 43.082031 37.859375 43.542969 37.488281 43.636719 37.035156 C 43.726562 36.574219 43.359375 36.113281 42.898438 36.023438 C 41.890625 35.929688 40.792969 36.023438 39.785156 36.023438 C 39.695312 36.667969 39.695312 37.214844 39.785156 37.859375 C 39.695312 37.859375 39.785156 37.859375 39.785156 37.859375 Z M 15.214844 31.535156 C 15.214844 31.535156 15.304688 31.445312 15.304688 31.445312 C 15.304688 31.261719 15.304688 31.074219 15.304688 30.984375 C 15.304688 24.109375 15.304688 17.234375 15.304688 10.359375 C 15.304688 9.804688 15.582031 9.167969 15.949219 8.707031 C 16.589844 7.699219 17.695312 7.515625 18.792969 7.515625 C 20.714844 7.515625 22.640625 7.515625 24.570312 7.515625 C 24.929688 7.515625 25.300781 7.332031 25.667969 7.148438 C 26.035156 6.875 25.945312 6.324219 25.484375 6.234375 C 25.207031 6.140625 24.839844 6.050781 24.476562 6.050781 C 22.640625 6.050781 20.804688 6.050781 18.976562 6.050781 C 18.332031 6.050781 17.601562 6.140625 16.957031 6.234375 C 14.851562 6.695312 13.109375 8.429688 13.109375 10.910156 C 13.199219 17.234375 13.109375 23.648438 13.109375 29.976562 C 13.109375 30.160156 13.109375 30.523438 13.292969 30.613281 C 13.929688 30.890625 14.574219 31.167969 15.214844 31.535156 Z M 17.050781 22.089844 C 17.050781 24.015625 17.050781 25.945312 17.050781 27.773438 C 22.734375 27.773438 28.417969 27.773438 34.101562 27.773438 C 34.101562 25.851562 34.101562 23.925781 34.101562 21.910156 C 33.824219 21.910156 33.640625 21.910156 33.457031 21.910156 C 28.785156 21.910156 24.015625 21.910156 19.339844 21.910156 C 18.609375 21.910156 17.875 21.910156 17.140625 21.910156 C 17.140625 22 17.050781 22 17.050781 22.089844 Z M 34.101562 33.179688 C 30.613281 33.179688 27.226562 33.179688 23.925781 33.179688 C 24.109375 34.101562 24.386719 35.109375 24.476562 36.023438 C 24.570312 37.035156 24.386719 37.949219 24.386719 38.957031 C 27.5 38.957031 30.800781 38.957031 34.101562 38.957031 C 34.101562 37.035156 34.101562 35.109375 34.101562 33.179688 Z M 35.929688 17.140625 C 35.929688 26.035156 35.929688 34.832031 35.929688 43.726562 C 36.484375 43.636719 37.035156 43.449219 37.488281 43.359375 C 37.859375 43.265625 38.042969 43.175781 38.042969 42.714844 C 38.042969 38.957031 38.042969 35.109375 38.042969 31.351562 C 38.042969 27.136719 38.042969 23.011719 38.042969 18.792969 C 38.042969 18.515625 37.949219 18.148438 37.765625 18.054688 C 37.125 17.785156 36.484375 17.511719 35.929688 17.140625 Z M 34.011719 18.332031 C 28.324219 18.332031 22.734375 18.332031 17.050781 18.332031 C 17.050781 18.976562 17.050781 19.613281 17.050781 20.167969 C 22.734375 20.167969 28.324219 20.167969 34.011719 20.167969 C 34.011719 19.523438 34.011719 18.976562 34.011719 18.332031 Z M 17.050781 40.792969 C 17.050781 41.429688 17.050781 41.984375 17.050781 42.535156 C 17.050781 42.898438 17.234375 42.988281 17.511719 43.082031 C 19.070312 43.636719 20.714844 43.726562 22.273438 43.082031 C 23.011719 42.804688 23.738281 42.351562 24.476562 42.074219 C 25.761719 41.613281 27.042969 41.429688 28.511719 41.613281 C 29.792969 41.800781 30.984375 42.074219 32.082031 42.804688 C 32.726562 43.175781 33.363281 43.542969 34.101562 43.449219 C 34.101562 42.535156 34.101562 41.613281 34.101562 40.699219 C 28.417969 40.792969 22.734375 40.792969 17.050781 40.792969 Z M 34.011719 29.609375 C 28.324219 29.609375 22.640625 29.609375 17.050781 29.609375 C 17.050781 30.25 17.050781 30.890625 17.050781 31.445312 C 22.734375 31.445312 28.324219 31.445312 34.011719 31.445312 C 34.011719 30.800781 34.011719 30.160156 34.011719 29.609375 Z M 35.839844 14.207031 C 36.484375 13.839844 37.035156 13.570312 37.582031 13.199219 C 37.765625 13.109375 37.949219 12.832031 37.949219 12.554688 C 38.042969 11.917969 37.949219 11.179688 37.949219 10.542969 C 37.949219 9.804688 38.226562 9.261719 38.679688 8.800781 C 39.417969 7.976562 40.332031 7.699219 41.429688 7.699219 C 43.359375 7.699219 45.285156 7.699219 47.207031 7.699219 C 47.574219 7.699219 47.851562 7.609375 48.125 7.425781 C 48.582031 7.148438 48.488281 6.511719 47.945312 6.234375 C 47.761719 6.140625 47.484375 6.140625 47.207031 6.140625 C 45.195312 6.140625 43.265625 6.140625 41.25 6.140625 C 40.515625 6.140625 39.785156 6.234375 39.050781 6.511719 C 37.214844 7.054688 35.570312 8.707031 35.75 11.089844 C 35.929688 12.101562 35.839844 13.109375 35.839844 14.207031 Z M 44 15.675781 C 43.175781 15.214844 42.261719 14.851562 41.707031 14.300781 C 41.160156 13.75 40.792969 12.832031 40.332031 11.917969 C 39.785156 13.839844 38.5 14.945312 36.667969 15.582031 C 37.304688 15.949219 37.765625 16.136719 38.226562 16.410156 C 38.863281 16.679688 39.324219 17.140625 39.601562 17.785156 C 39.785156 18.238281 40.054688 18.699219 40.425781 19.339844 C 41.070312 17.417969 42.167969 16.320312 44 15.675781 Z M 7.054688 33.089844 C 7.515625 33.363281 7.976562 33.550781 8.339844 33.824219 C 9.074219 34.195312 9.625 34.648438 9.898438 35.386719 C 9.988281 35.75 10.265625 36.023438 10.359375 36.300781 C 10.542969 36.667969 10.636719 36.574219 10.820312 36.300781 C 11 35.929688 11.179688 35.660156 11.363281 35.292969 C 11.640625 34.648438 12.101562 34.101562 12.832031 33.824219 C 13.292969 33.640625 13.75 33.363281 14.207031 33.089844 C 13.660156 32.820312 13.015625 32.542969 12.554688 32.175781 C 12.195312 31.898438 11.917969 31.625 11.640625 31.261719 C 11.363281 30.800781 11.089844 30.339844 10.820312 29.886719 C 10.636719 29.609375 10.542969 29.609375 10.449219 29.886719 C 10.265625 30.339844 9.988281 30.707031 9.804688 31.167969 C 9.535156 31.714844 9.167969 32.082031 8.613281 32.359375 C 8.160156 32.449219 7.699219 32.726562 7.054688 33.089844 Z M 15.214844 34.554688 C 14.667969 34.925781 14.023438 35.199219 13.476562 35.570312 C 13.292969 35.660156 13.199219 35.929688 13.199219 36.113281 C 13.199219 37.859375 13.199219 39.601562 13.199219 41.339844 C 13.199219 41.429688 13.199219 41.613281 13.292969 41.707031 C 13.929688 41.800781 14.574219 41.984375 15.304688 42.074219 C 15.214844 39.511719 15.214844 37.035156 15.214844 34.554688 Z M 47.390625 9.445312 C 47.390625 9.535156 47.390625 9.535156 47.300781 9.625 C 47.484375 9.714844 47.574219 9.804688 47.761719 9.988281 C 48.488281 10.820312 49.320312 10.636719 50.140625 9.804688 C 51.332031 8.523438 51.332031 5.410156 50.234375 4.035156 C 49.773438 3.484375 49.320312 3.113281 48.675781 3.207031 C 47.945312 3.300781 47.484375 3.667969 47.207031 4.398438 C 49.042969 4.488281 49.957031 5.320312 50.140625 6.417969 C 50.234375 6.964844 50.234375 7.609375 49.863281 8.160156 C 49.320312 9.074219 48.398438 9.351562 47.390625 9.445312 Z M 24.570312 4.125 C 25.300781 4.304688 26.125 4.304688 26.765625 4.949219 C 27.410156 5.589844 27.679688 6.324219 27.5 7.148438 C 27.320312 8.25 26.488281 8.984375 24.75 9.261719 C 25.023438 9.804688 25.484375 10.175781 26.125 10.175781 C 26.949219 10.175781 27.410156 9.714844 27.773438 9.074219 C 28.511719 7.699219 28.601562 6.324219 28.140625 4.859375 C 27.957031 4.214844 27.589844 3.761719 27.136719 3.300781 C 26.398438 2.75 25.113281 2.929688 24.570312 4.125 Z M 17.050781 37.582031 C 18.054688 37.582031 18.976562 37.582031 19.890625 37.582031 C 20.445312 37.582031 20.804688 37.214844 20.804688 36.667969 C 20.804688 36.207031 20.445312 35.75 19.984375 35.75 C 18.976562 35.75 18.054688 35.75 17.050781 35.75 C 17.050781 36.390625 17.050781 36.945312 17.050781 37.582031 Z M 42.535156 41.613281 C 42.074219 40.976562 41.613281 40.332031 41.070312 39.601562 C 40.699219 39.601562 40.238281 39.601562 39.785156 39.601562 C 39.785156 40.515625 39.785156 41.339844 39.785156 42.261719 C 40.699219 42.074219 41.613281 41.890625 42.535156 41.613281 Z M 43.175781 39.601562 C 43.449219 40.332031 44 40.515625 44.457031 40.148438 C 44.824219 39.875 45.101562 39.417969 45.285156 39.050781 C 45.738281 38.136719 45.738281 37.125 45.648438 36.207031 C 45.554688 35.476562 45.375 34.648438 44.824219 34.011719 C 44.550781 33.640625 44.179688 33.550781 43.820312 33.734375 C 43.542969 33.824219 43.359375 34.101562 43.175781 34.375 C 44.917969 34.832031 45.554688 36.023438 45.464844 37.125 C 45.285156 38.226562 44.550781 39.234375 43.175781 39.601562 Z M 22.457031 38.957031 C 22.550781 38.320312 22.640625 37.765625 22.734375 37.125 C 22.917969 36.023438 22.640625 35.015625 22.179688 34.011719 C 21.636719 33 20.988281 33.089844 20.351562 34.011719 C 21.449219 34.285156 22.273438 34.925781 22.457031 36.113281 C 22.640625 37.214844 22.273438 38.226562 21.265625 38.863281 C 21.726562 38.957031 22 38.957031 22.457031 38.957031 Z M 17.050781 33.917969 C 18.425781 34.101562 18.515625 34.011719 18.699219 33.179688 C 18.148438 33.179688 17.601562 33.179688 17.050781 33.179688 C 17.050781 33.457031 17.050781 33.734375 17.050781 33.917969 Z M 17.050781 33.917969 "/>
<path style=" stroke:none;fill-rule:nonzero;fill:rgb(0.392157%,50.588235%,96.078431%);fill-opacity:1;" d="M 12.464844 47.945312 C 13.929688 48.035156 15.398438 48.304688 16.773438 49.042969 C 18.886719 50.234375 21.082031 50.140625 23.285156 49.042969 C 24.660156 48.304688 26.125 47.851562 27.773438 47.945312 C 29.332031 48.035156 30.800781 48.304688 32.082031 49.136719 C 33.273438 49.863281 34.648438 50.140625 36.207031 49.957031 C 37.488281 49.773438 38.5 49.320312 39.601562 48.765625 C 41.070312 48.035156 42.714844 47.945312 44.363281 48.035156 C 46.199219 48.214844 47.574219 49.136719 49.042969 49.957031 C 49.863281 50.417969 50.695312 50.964844 51.515625 51.515625 C 51.976562 51.792969 52.160156 52.339844 51.886719 52.707031 C 51.609375 53.167969 51.148438 53.261719 50.601562 52.890625 C 49.226562 52.070312 47.851562 51.148438 46.476562 50.324219 C 45.195312 49.589844 43.820312 49.5 42.351562 49.589844 C 41.070312 49.679688 40.054688 50.511719 38.863281 50.964844 C 36.207031 52.070312 33.550781 51.886719 31.074219 50.417969 C 30.25 49.863281 29.332031 49.679688 28.324219 49.589844 C 26.949219 49.410156 25.574219 49.589844 24.386719 50.324219 C 22.734375 51.238281 20.988281 51.609375 19.160156 51.515625 C 18.054688 51.425781 16.863281 51.054688 15.949219 50.511719 C 15.125 50.050781 14.300781 49.773438 13.292969 49.679688 C 12.464844 49.589844 11.640625 49.5 10.820312 49.773438 C 10.082031 50.050781 9.351562 50.324219 8.707031 50.695312 C 7.515625 51.332031 6.417969 52.070312 5.226562 52.800781 C 4.765625 53.074219 4.214844 52.984375 3.945312 52.523438 C 3.667969 52.070312 3.761719 51.609375 4.214844 51.332031 C 5.773438 50.417969 7.332031 49.410156 8.890625 48.582031 C 9.898438 48.125 11.179688 48.035156 12.464844 47.945312 Z M 12.464844 47.945312 "/>
<path style=" stroke:none;fill-rule:nonzero;fill:rgb(0.392157%,50.588235%,96.078431%);fill-opacity:1;" d="M 17.140625 16.5 C 17.140625 16.5 17.050781 16.410156 17.050781 16.410156 C 17.050781 16.5 17.140625 16.5 17.140625 16.5 Z M 17.140625 16.5 "/>
<path style=" stroke:none;fill-rule:nonzero;fill:rgb(0.392157%,50.588235%,96.078431%);fill-opacity:1;" d="M 17.140625 22 C 17.140625 22 17.050781 22.089844 17.050781 22.089844 C 17.050781 22 17.140625 22 17.140625 22 Z M 17.140625 22 "/>
<path style=" stroke:none;fill-rule:nonzero;fill:rgb(0.392157%,50.588235%,96.078431%);fill-opacity:1;" d="M 15.214844 31.535156 C 15.214844 31.535156 15.304688 31.445312 15.304688 31.445312 C 15.214844 31.445312 15.214844 31.445312 15.214844 31.535156 Z M 15.214844 31.535156 "/>
<path style=" stroke:none;fill-rule:nonzero;fill:rgb(0.392157%,50.588235%,96.078431%);fill-opacity:1;" d="M 39.695312 37.765625 C 39.695312 37.859375 39.785156 37.859375 39.695312 37.765625 C 39.785156 37.859375 39.695312 37.859375 39.695312 37.765625 Z M 39.695312 37.765625 "/>
</g>
</svg>
