<?xml version="1.0" encoding="UTF-8"?>
<svg xmlns="http://www.w3.org/2000/svg" xmlns:xlink="http://www.w3.org/1999/xlink" width="70px" height="70px" viewBox="0 0 70 70" version="1.1">
<g id="surface1">
<path style=" stroke:none;fill-rule:nonzero;fill:rgb(0.392157%,50.588235%,96.078431%);fill-opacity:1;" d="M 34.785156 68.601562 C 34.136719 68.492188 33.382812 68.382812 32.738281 68.167969 C 30.152344 67.738281 27.675781 66.769531 25.414062 65.261719 C 24.015625 64.292969 22.617188 63.324219 21.429688 62.136719 C 20.136719 60.847656 19.167969 59.230469 17.984375 57.832031 C 17.769531 57.507812 17.660156 57.292969 17.339844 57.722656 C 16.476562 58.90625 14.429688 58.800781 13.785156 57.292969 C 13.355469 56.324219 12.816406 55.570312 12.601562 54.601562 C 12.277344 53.414062 11.308594 53.09375 10.445312 52.660156 C 9.585938 52.230469 8.722656 51.90625 7.863281 51.371094 C 6.355469 50.507812 6.570312 48.355469 8.078125 47.601562 C 9.261719 47.0625 10.445312 46.523438 11.628906 45.984375 C 11.953125 45.875 12.167969 45.554688 12.382812 45.230469 C 12.921875 44.046875 13.460938 42.863281 14 41.785156 C 14.214844 41.460938 14.539062 41.03125 14.863281 40.921875 C 15.183594 40.707031 15.398438 40.492188 15.507812 40.0625 C 16.152344 37.152344 17.339844 34.570312 18.628906 31.984375 C 20.460938 28.324219 22.832031 24.984375 25.199219 21.644531 C 28.214844 17.230469 31.230469 12.707031 33.492188 7.863281 C 34.246094 6.136719 34.890625 4.414062 35.429688 2.691406 C 35.753906 1.832031 36.398438 1.398438 37.046875 1.398438 C 37.691406 1.292969 38.445312 1.722656 38.769531 2.585938 C 39.523438 4.414062 40.0625 6.246094 40.921875 7.96875 C 41.890625 10.015625 42.863281 12.0625 44.046875 13.890625 C 46.523438 17.875 49.214844 21.863281 51.800781 25.847656 C 52.015625 26.277344 52.339844 26.601562 52.554688 27.03125 C 52.875 26.492188 53.199219 25.953125 53.523438 25.523438 C 54.277344 24.660156 56 24.875 56.539062 25.953125 C 56.96875 26.707031 57.398438 27.570312 57.722656 28.429688 C 58.046875 29.507812 58.90625 29.832031 59.769531 30.261719 C 60.414062 30.585938 61.0625 30.800781 61.707031 31.125 C 62.460938 31.554688 62.785156 32.199219 62.675781 33.0625 C 62.570312 33.921875 62.03125 34.460938 61.277344 34.785156 C 60.308594 35.214844 59.445312 35.644531 58.476562 36.078125 C 57.9375 36.292969 57.617188 37.046875 57.832031 37.585938 C 58.585938 39.628906 59.015625 41.675781 59.125 43.722656 C 59.230469 45.230469 59.339844 46.738281 59.230469 48.136719 C 59.015625 50.398438 58.585938 52.554688 57.722656 54.601562 C 56.753906 56.96875 55.355469 59.125 53.628906 61.0625 C 51.371094 63.539062 48.675781 65.476562 45.660156 66.769531 C 43.617188 67.628906 41.460938 68.167969 39.199219 68.492188 C 39.199219 68.492188 39.09375 68.601562 39.09375 68.601562 C 37.691406 68.601562 36.292969 68.601562 34.785156 68.601562 Z M 36.9375 4.628906 C 36.9375 4.628906 36.832031 4.738281 36.722656 4.953125 C 35.96875 6.785156 35.324219 8.722656 34.355469 10.445312 C 32.847656 13.246094 31.230469 15.9375 29.617188 18.628906 C 27.246094 22.292969 24.660156 25.953125 22.292969 29.617188 C 20.03125 33.0625 18.308594 36.832031 17.339844 40.921875 C 17.339844 41.136719 17.339844 41.355469 17.339844 41.460938 C 17.984375 42.753906 18.523438 44.046875 19.167969 45.339844 C 19.277344 45.660156 19.492188 45.875 19.816406 46.09375 C 21 46.738281 22.292969 47.277344 23.476562 47.816406 C 24.984375 48.570312 24.875 50.722656 23.585938 51.371094 C 22.292969 52.015625 21 52.660156 19.707031 53.308594 C 19.167969 53.628906 18.738281 54.707031 18.953125 55.246094 C 20.355469 58.152344 22.398438 60.523438 24.984375 62.570312 C 28 64.9375 31.445312 66.125 35.324219 66.554688 C 37.152344 66.769531 38.984375 66.554688 40.816406 66.230469 C 44.800781 65.476562 48.136719 63.539062 51.046875 60.847656 C 52.984375 59.015625 54.382812 56.863281 55.460938 54.382812 C 56.429688 52.015625 56.96875 49.644531 57.078125 47.0625 C 57.078125 45.015625 56.96875 43.078125 56.539062 41.136719 C 56.429688 40.816406 56.324219 40.492188 56.214844 40.167969 C 54.816406 41.246094 53.523438 40.601562 52.984375 39.523438 C 52.554688 38.554688 52.125 37.585938 51.691406 36.617188 C 51.585938 36.398438 51.371094 36.183594 51.152344 36.078125 C 50.183594 35.644531 49.214844 35.214844 48.246094 34.785156 C 47.492188 34.460938 47.0625 33.816406 47.0625 32.953125 C 47.0625 32.09375 47.492188 31.445312 48.246094 31.125 C 49.324219 30.585938 50.292969 30.152344 51.371094 29.617188 C 51.261719 29.507812 51.261719 29.398438 51.261719 29.292969 C 49.429688 26.601562 47.707031 24.015625 45.984375 21.324219 C 44.046875 18.308594 42 15.183594 40.277344 11.953125 C 38.984375 9.585938 38.015625 7.109375 36.9375 4.628906 Z M 9.261719 49.539062 C 9.261719 49.644531 9.261719 49.644531 9.261719 49.753906 C 10.554688 50.292969 11.847656 50.9375 13.136719 51.476562 C 13.460938 51.585938 13.785156 51.90625 13.890625 52.230469 C 14.429688 53.308594 14.96875 54.492188 15.507812 55.675781 C 15.507812 55.785156 15.617188 55.890625 15.722656 56 C 15.832031 55.890625 15.9375 55.785156 16.046875 55.675781 C 16.476562 54.921875 16.800781 54.0625 17.125 53.199219 C 17.445312 52.554688 17.769531 51.800781 18.308594 51.476562 C 19.492188 50.722656 20.890625 50.183594 22.292969 49.644531 C 22.183594 49.644531 22.183594 49.539062 22.078125 49.429688 C 21 48.890625 19.921875 48.460938 18.847656 47.921875 C 18.308594 47.707031 17.875 47.277344 17.554688 46.738281 C 16.90625 45.554688 16.371094 44.261719 15.722656 42.863281 C 15.183594 43.9375 14.753906 45.015625 14.324219 45.984375 C 14 46.738281 13.785156 47.492188 12.921875 47.921875 C 11.628906 48.355469 10.445312 49 9.261719 49.539062 Z M 60.199219 32.738281 C 59.230469 32.308594 58.371094 31.875 57.507812 31.554688 C 56.863281 31.339844 56.539062 30.90625 56.214844 30.371094 C 55.785156 29.507812 55.355469 28.644531 54.921875 27.570312 C 54.601562 28.214844 54.277344 28.863281 54.0625 29.398438 C 53.628906 30.476562 53.09375 31.445312 51.800781 31.875 C 51.046875 32.09375 50.398438 32.523438 49.644531 32.953125 C 50.722656 33.492188 51.800781 33.921875 52.769531 34.355469 C 52.984375 34.460938 53.199219 34.570312 53.308594 34.785156 C 53.628906 35.429688 53.953125 36.078125 54.277344 36.722656 C 54.492188 37.152344 54.707031 37.691406 55.03125 38.230469 C 55.570312 37.152344 55.890625 36.183594 56.429688 35.214844 C 56.644531 34.890625 57.078125 34.570312 57.398438 34.355469 C 58.261719 33.601562 59.125 33.277344 60.199219 32.738281 Z M 60.199219 32.738281 "/>
<path style=" stroke:none;fill-rule:nonzero;fill:rgb(0.392157%,50.588235%,96.078431%);fill-opacity:1;" d="M 54.921875 48.570312 C 54.492188 50.078125 54.167969 51.585938 53.628906 52.984375 C 52.660156 55.675781 50.832031 57.9375 48.675781 59.875 C 46.308594 61.816406 43.617188 63.214844 40.601562 63.753906 C 40.277344 63.753906 40.0625 63.863281 39.847656 63.96875 C 39.09375 64.183594 38.445312 63.863281 38.230469 63 C 38.125 62.570312 38.554688 61.921875 39.199219 61.816406 C 41.570312 61.382812 43.832031 60.628906 45.875 59.230469 C 48.570312 57.398438 50.507812 55.03125 51.691406 52.015625 C 52.125 50.832031 52.339844 49.644531 52.660156 48.460938 C 52.769531 47.921875 53.308594 47.382812 53.847656 47.492188 C 54.277344 47.492188 54.816406 47.707031 54.921875 48.570312 Z M 54.921875 48.570312 "/>
</g>
</svg>
