<?xml version="1.0" encoding="UTF-8"?>
<svg xmlns="http://www.w3.org/2000/svg" xmlns:xlink="http://www.w3.org/1999/xlink" width="25px" height="25px" viewBox="0 0 25 25" version="1.1">
<g id="surface1">
<path style=" stroke:none;fill-rule:nonzero;fill:rgb(100%,100%,100%);fill-opacity:1;" d="M 23.171875 1.828125 C 22.039062 0.699219 20.519531 0.0507812 18.929688 0.0078125 C 18.871094 0 18.808594 0 18.75 0 L 6.21875 0 C 4.570312 0.0078125 2.992188 0.671875 1.828125 1.828125 C 0.660156 3 0 4.589844 0 6.25 L 0 18.75 C 0 20.410156 0.660156 22 1.828125 23.171875 C 3 24.339844 4.589844 25 6.25 25 L 18.75 25 C 20.410156 25 22 24.339844 23.171875 23.171875 C 24.339844 22 25 20.410156 25 18.75 L 25 6.25 C 25 4.589844 24.339844 3 23.171875 1.828125 Z M 6.789062 15.339844 C 6.699219 14.929688 6.648438 14.5 6.578125 14.039062 C 6.660156 13.519531 6.710938 12.96875 6.839844 12.441406 C 6.941406 12.070312 7.308594 11.878906 7.660156 12.019531 C 8.730469 12.429688 9.78125 12.871094 10.828125 13.308594 C 11.121094 13.429688 11.257812 13.621094 11.230469 14.078125 C 11.210938 14.410156 10.949219 14.621094 10.421875 14.671875 C 9.398438 14.78125 8.390625 15.007812 7.558594 15.601562 C 7.257812 15.808594 6.871094 15.691406 6.789062 15.339844 Z M 12.539062 17.148438 L 12.5 17.148438 L 12.5 19.75 C 12.5 20.050781 12.269531 20.300781 11.96875 20.308594 C 11.351562 20.339844 10.800781 20.101562 10.242188 19.878906 C 9.960938 19.769531 9.679688 19.640625 9.429688 19.480469 C 8.800781 19.078125 8.820312 18.769531 9.21875 18.289062 C 9.710938 17.710938 10.191406 17.128906 10.679688 16.539062 C 10.878906 16.300781 11.070312 16.058594 11.257812 15.808594 C 11.480469 15.539062 11.730469 15.460938 12.070312 15.578125 C 12.378906 15.679688 12.53125 15.898438 12.539062 16.25 Z M 11.839844 12.140625 C 11.609375 12.058594 11.371094 11.871094 11.242188 11.671875 C 10.507812 10.539062 9.800781 9.390625 9.089844 8.25 C 8.742188 7.691406 8.441406 7.101562 8.039062 6.578125 C 7.71875 6.160156 7.929688 5.78125 8.320312 5.570312 C 9.007812 5.210938 9.730469 4.992188 10.480469 4.828125 C 10.769531 4.78125 11.058594 4.75 11.398438 4.699219 C 11.578125 4.742188 11.800781 4.769531 12 4.851562 C 12.199219 4.941406 12.171875 5.160156 12.199219 5.328125 C 12.242188 5.539062 12.242188 5.757812 12.257812 5.980469 C 12.289062 6.621094 12.320312 7.269531 12.351562 7.910156 C 12.398438 8.691406 12.449219 9.460938 12.5 10.242188 C 12.519531 10.640625 12.539062 11.050781 12.550781 11.449219 C 12.550781 11.890625 12.191406 12.269531 11.839844 12.140625 Z M 14.109375 12.058594 C 15.019531 11.53125 15.410156 10.550781 15.78125 9.578125 C 15.839844 9.421875 16.058594 9.371094 16.21875 9.269531 C 16.410156 9.351562 16.570312 9.390625 16.679688 9.492188 C 17.410156 10.179688 17.96875 10.980469 18.25 11.960938 C 18.320312 12.230469 18.128906 12.519531 17.859375 12.601562 C 16.71875 12.898438 15.578125 13.191406 14.441406 13.46875 C 14.148438 13.539062 13.851562 13.410156 13.699219 13.128906 C 13.507812 12.78125 13.539062 12.390625 14.109375 12.058594 Z M 18.289062 16.730469 C 18.121094 17.128906 17.898438 17.507812 17.648438 17.859375 C 17.328125 18.300781 16.980469 18.742188 16.492188 19.03125 C 16.390625 19.089844 16.269531 19.128906 16.121094 19.191406 C 15.992188 19.109375 15.828125 19.050781 15.769531 18.941406 C 15.257812 17.96875 14.929688 16.921875 14.121094 16.179688 C 13.550781 15.671875 13.699219 14.992188 14.289062 14.839844 C 14.410156 14.808594 14.558594 14.820312 14.679688 14.859375 C 15.789062 15.242188 16.890625 15.621094 17.992188 16.007812 C 18.339844 16.140625 18.449219 16.359375 18.289062 16.730469 Z M 18.289062 16.730469 "/>
</g>
</svg>
